<?xml version="1.0" standalone="no"?>
<!DOCTYPE svg PUBLIC "-//W3C//DTD SVG 20010904//EN"
 "http://www.w3.org/TR/2001/REC-SVG-20010904/DTD/svg10.dtd">
<svg version="1.0" xmlns="http://www.w3.org/2000/svg"
 width="256.000000pt" height="256.000000pt" viewBox="0 0 256.000000 256.000000"
 preserveAspectRatio="xMidYMid meet">
<metadata>
Created by potrace 1.11, written by Peter Selinger 2001-2013
</metadata>
<g transform="translate(0.000000,256.000000) scale(0.100000,-0.100000)"
fill="#000000" stroke="none">
<path d="M1080 2020 c-8 -5 -16 -28 -17 -54 -3 -44 -3 -45 32 -52 19 -3 35
-10 35 -15 0 -6 10 -13 21 -18 20 -7 17 -11 -35 -52 -57 -44 -73 -72 -62 -106
11 -32 151 -173 172 -173 11 0 50 25 87 55 51 42 67 51 67 37 0 -10 4 -22 9
-28 5 -5 11 -25 13 -44 2 -29 7 -35 28 -36 14 -1 34 -5 44 -9 48 -20 61 77 22
161 -15 33 -21 56 -15 65 18 29 7 59 -51 135 -67 87 -87 100 -136 84 -30 -10
-37 -8 -66 13 -55 40 -118 56 -148 37z m122 -58 c42 -28 42 -38 -2 -44 -23 -4
-30 -1 -28 11 2 12 -4 15 -27 13 -26 -2 -28 -1 -11 9 18 11 18 12 -5 31 l-24
19 30 -7 c17 -4 47 -18 67 -32z m108 -166 c6 -8 10 -25 8 -38 -2 -19 -9 -23
-38 -23 -29 0 -36 4 -38 23 -4 28 14 52 38 52 10 0 23 -7 30 -14z m154 -114
c20 -40 31 -102 17 -102 -6 0 -11 10 -11 23 -1 22 -1 22 -17 2 -15 -19 -15
-18 -9 14 5 28 3 32 -10 27 -12 -5 -15 -2 -9 11 4 10 10 26 12 36 7 23 10 22
27 -11z"/>
<path d="M595 1657 c-8 -12 -25 -51 -37 -87 -23 -65 -23 -65 -26 -27 -4 42
-27 50 -61 21 -20 -18 -18 -44 3 -44 7 0 22 -11 33 -24 20 -23 21 -26 6 -94
l-16 -70 -33 5 c-65 11 -110 -76 -68 -135 8 -12 22 -22 30 -22 8 0 29 -15 47
-34 18 -19 46 -41 62 -50 l30 -16 -36 6 c-35 5 -36 4 -43 -27 -8 -39 6 -58 29
-39 9 7 29 14 46 15 16 2 38 10 47 18 21 19 86 9 89 -13 5 -27 -12 -37 -121
-69 -59 -17 -126 -41 -147 -52 -33 -16 -39 -24 -39 -51 0 -19 9 -41 21 -54
l22 -23 -25 -29 c-22 -27 -24 -34 -17 -101 3 -43 12 -76 19 -81 7 -5 34 -11
59 -15 25 -3 137 -26 247 -51 111 -24 214 -44 230 -44 25 0 42 15 107 94 43
52 100 111 127 132 44 33 48 41 46 73 -1 22 -7 37 -17 39 -8 1 -86 -38 -173
-88 -148 -85 -191 -105 -149 -68 15 13 243 141 322 181 14 7 25 17 25 22 1 10
-205 82 -400 141 -109 33 -115 52 -18 52 42 0 74 6 89 16 29 19 53 93 69 215
l11 84 59 12 c69 14 86 32 86 90 0 55 -22 75 -84 75 -45 0 -47 1 -40 23 3 12
13 26 20 30 39 22 -8 63 -50 44 -30 -14 -32 -20 -12 -36 8 -7 12 -21 9 -31 -5
-17 -10 -14 -41 25 -19 25 -38 45 -43 45 -4 0 -22 -18 -41 -40 -32 -39 -35
-41 -76 -34 -34 5 -50 16 -82 54 -47 57 -74 67 -95 37z m177 -120 l59 -11 28
34 c25 31 30 33 45 21 10 -8 24 -27 31 -42 9 -17 26 -30 45 -34 28 -6 30 -9
30 -56 0 -41 -3 -49 -19 -49 -28 0 -38 -19 -45 -85 -23 -210 -38 -235 -139
-235 -129 0 -299 46 -314 86 -3 8 0 33 6 57 7 23 29 110 50 192 21 83 46 168
55 190 l17 40 46 -48 c40 -42 54 -50 105 -60z m-292 -252 c0 -39 -14 -75 -29
-75 -42 0 -56 59 -20 84 23 16 49 11 49 -9z m685 -568 c-78 -64 -130 -97 -134
-85 -8 23 152 138 168 122 3 -3 -13 -19 -34 -37z"/>
<path d="M747 1514 c-13 -13 -7 -55 9 -61 24 -9 51 23 38 45 -12 19 -36 27
-47 16z"/>
</g>
</svg>
